<?xml version="1.0" encoding="UTF-8" standalone="no"?>
<!-- Created with Inkscape (http://www.inkscape.org/) -->

<svg
   xmlns:dc="http://purl.org/dc/elements/1.1/"
   xmlns:cc="http://creativecommons.org/ns#"
   xmlns:rdf="http://www.w3.org/1999/02/22-rdf-syntax-ns#"
   xmlns:svg="http://www.w3.org/2000/svg"
   xmlns="http://www.w3.org/2000/svg"
   xmlns:sodipodi="http://sodipodi.sourceforge.net/DTD/sodipodi-0.dtd"
   xmlns:inkscape="http://www.inkscape.org/namespaces/inkscape"
   width="1010.1101"
   height="299.45792"
   id="svg7156"
   version="1.1"
   inkscape:version="0.48.4 r9939"
   sodipodi:docname="logo-ACE.svg">
  <defs
     id="defs7158" />
  <sodipodi:namedview
     id="base"
     pagecolor="#ffffff"
     bordercolor="#666666"
     borderopacity="1.0"
     inkscape:pageopacity="0.0"
     inkscape:pageshadow="2"
     inkscape:zoom="0.98994949"
     inkscape:cx="852.02525"
     inkscape:cy="-15.069472"
     inkscape:document-units="px"
     inkscape:current-layer="layer1"
     showgrid="false"
     inkscape:window-width="1920"
     inkscape:window-height="1018"
     inkscape:window-x="-8"
     inkscape:window-y="-8"
     inkscape:window-maximized="1"
     fit-margin-top="0"
     fit-margin-left="0"
     fit-margin-right="0"
     fit-margin-bottom="0" />
  <metadata
     id="metadata7161">
    <rdf:RDF>
      <cc:Work
         rdf:about="">
        <dc:format>image/svg+xml</dc:format>
        <dc:type
           rdf:resource="http://purl.org/dc/dcmitype/StillImage" />
        <dc:title></dc:title>
      </cc:Work>
    </rdf:RDF>
  </metadata>
  <g
     inkscape:label="Layer 1"
     inkscape:groupmode="layer"
     id="layer1"
     transform="translate(3.8568765e-6,-0.63322541)">
    <g
       id="g7333">
      <path
         inkscape:connector-curvature="0"
         d="m 81.29514,290.64115 -2.9838,-6.51 -3.0198,6.51 6.0036,0 z m -6.4995,-14.064 7.1499,0 11.3928,23.055 -7.9536,0 -1.9476,-4.086 -10.3242,0 -1.9113,4.086 -7.8,0 11.394,-23.055"
         style="fill:#2d458d;fill-opacity:1;fill-rule:nonzero;stroke:none"
         id="path3005" />
      <path
         inkscape:connector-curvature="0"
         d="m 110.84964,300.05815 c -1.9113,0 -3.6315,-0.207 -5.1621,-0.621 -1.5282,-0.414 -2.829,-1.053 -3.9,-1.914 -1.0698,-0.858 -1.8924,-1.95 -2.4645,-3.27 -0.5742,-1.317 -0.8613,-2.871 -0.8613,-4.659 l 0,-12.852 7.5705,0 0,12.723 c 0,1.656 0.4416,2.88 1.3263,3.678 0.8871,0.795 2.0754,1.191 3.5685,1.191 1.4919,0 2.6802,-0.378 3.5649,-1.143 0.8859,-0.762 1.3287,-1.95 1.3287,-3.564 l 0,-12.885 7.5693,0 0,12.687 c 0,1.854 -0.3,3.45 -0.8988,4.791 -0.5976,1.344 -1.4391,2.445 -2.5218,3.303 -1.0842,0.861 -2.3967,1.5 -3.9387,1.914 -1.5423,0.414 -3.2685,0.621 -5.181,0.621"
         style="fill:#2d458d;fill-opacity:1;fill-rule:nonzero;stroke:none"
         id="path3007" />
      <path
         inkscape:connector-curvature="0"
         d="m 137.19354,282.30115 -8.0298,0 0,-5.559 23.475,0 0,5.559 -8.0286,0 0,17.331 -7.4166,0 0,-17.331"
         style="fill:#2d458d;fill-opacity:1;fill-rule:nonzero;stroke:none"
         id="path3009" />
      <path
         inkscape:connector-curvature="0"
         d="m 172.27104,294.37015 c 1.0233,0 1.956,-0.165 2.7996,-0.492 0.8439,-0.327 1.5588,-0.768 2.1471,-1.326 0.5883,-0.555 1.0476,-1.203 1.3803,-1.944 0.333,-0.741 0.498,-1.527 0.498,-2.355 l 0,-0.066 c 0,-0.828 -0.165,-1.611 -0.498,-2.355 -0.3327,-0.738 -0.8061,-1.392 -1.419,-1.962 -0.6129,-0.564 -1.3407,-1.017 -2.1843,-1.356 -0.8439,-0.336 -1.7778,-0.507 -2.7996,-0.507 -1.0221,0 -1.95,0.165 -2.7798,0.489 -0.831,0.33 -1.5456,0.771 -2.1468,1.326 -0.6024,0.555 -1.0617,1.206 -1.3806,1.947 -0.3198,0.741 -0.4794,1.524 -0.4794,2.352 l 0,0.066 c 0,0.831 0.1665,1.614 0.4983,2.355 0.3327,0.741 0.7992,1.395 1.4004,1.962 0.6,0.567 1.3218,1.02 2.1654,1.356 0.8439,0.339 1.7766,0.51 2.7984,0.51 z m -0.0573,5.721 c -2.0649,0 -3.9762,-0.309 -5.7351,-0.93 -1.758,-0.621 -3.2742,-1.467 -4.5492,-2.538 -1.275,-1.065 -2.2758,-2.319 -3.0012,-3.759 -0.7266,-1.44 -1.0899,-2.976 -1.0899,-4.611 l 0,-0.066 c 0,-1.635 0.3633,-3.177 1.0899,-4.626 0.7254,-1.449 1.7403,-2.715 3.0399,-3.792 1.2996,-1.08 2.8287,-1.932 4.5879,-2.55 1.7577,-0.624 3.6702,-0.933 5.7339,-0.933 2.0661,0 3.9762,0.309 5.7351,0.933 1.7601,0.618 3.2751,1.464 4.5501,2.532 1.275,1.071 2.274,2.322 3.003,3.759 0.726,1.44 1.089,2.979 1.089,4.611 l 0,0.066 c 0,1.635 -0.363,3.177 -1.089,4.629 -0.729,1.452 -1.743,2.712 -3.039,3.792 -1.302,1.08 -2.832,1.932 -4.5903,2.553 -1.7589,0.621 -3.6702,0.93 -5.7351,0.93"
         style="fill:#2d458d;fill-opacity:1;fill-rule:nonzero;stroke:none"
         id="path3011" />
      <path
         inkscape:connector-curvature="0"
         d="m 219.73914,300.09115 c -1.911,0 -3.708,-0.294 -5.391,-0.882 -1.683,-0.588 -3.144,-1.413 -4.377,-2.469 -1.239,-1.059 -2.217,-2.313 -2.943,-3.762 -0.729,-1.449 -1.092,-3.024 -1.092,-4.725 l 0,-0.066 c 0,-1.656 0.357,-3.21 1.071,-4.659 0.714,-1.449 1.695,-2.715 2.946,-3.792 1.248,-1.08 2.733,-1.926 4.452,-2.535 1.719,-0.612 3.6,-0.915 5.64,-0.915 1.377,0 2.625,0.114 3.747,0.342 1.122,0.228 2.148,0.555 3.078,0.981 0.93,0.426 1.77,0.93 2.523,1.521 0.75,0.588 1.419,1.23 2.007,1.929 l -5.583,3.693 c -0.765,-0.825 -1.605,-1.479 -2.523,-1.959 -0.918,-0.48 -2.025,-0.72 -3.327,-0.72 -0.942,0 -1.803,0.159 -2.58,0.474 -0.777,0.315 -1.446,0.747 -2.007,1.293 -0.561,0.543 -0.999,1.188 -1.32,1.929 -0.318,0.741 -0.477,1.524 -0.477,2.352 l 0,0.066 c 0,0.852 0.159,1.653 0.477,2.406 0.321,0.75 0.759,1.401 1.32,1.944 0.561,0.546 1.23,0.975 2.007,1.29 0.777,0.318 1.638,0.477 2.58,0.477 0.69,0 1.32,-0.066 1.893,-0.198 0.573,-0.129 1.098,-0.321 1.569,-0.57 0.471,-0.252 0.918,-0.546 1.338,-0.882 0.42,-0.339 0.834,-0.717 1.242,-1.131 l 5.583,3.402 c -0.639,0.741 -1.332,1.425 -2.085,2.058 -0.753,0.633 -1.605,1.179 -2.562,1.638 -0.954,0.456 -2.025,0.816 -3.21,1.077 -1.185,0.261 -2.517,0.393 -3.996,0.393"
         style="fill:#2d458d;fill-opacity:1;fill-rule:nonzero;stroke:none"
         id="path3013" />
      <path
         inkscape:connector-curvature="0"
         d="m 251.14914,294.37015 c 1.023,0 1.953,-0.165 2.796,-0.492 0.846,-0.327 1.56,-0.768 2.148,-1.326 0.588,-0.555 1.05,-1.203 1.383,-1.944 0.33,-0.741 0.498,-1.527 0.498,-2.355 l 0,-0.066 c 0,-0.828 -0.168,-1.611 -0.498,-2.355 -0.333,-0.738 -0.807,-1.392 -1.422,-1.962 -0.612,-0.564 -1.341,-1.017 -2.184,-1.356 -0.843,-0.336 -1.776,-0.507 -2.799,-0.507 -1.02,0 -1.95,0.165 -2.778,0.489 -0.834,0.33 -1.548,0.771 -2.148,1.326 -0.603,0.555 -1.062,1.206 -1.38,1.947 -0.321,0.741 -0.48,1.524 -0.48,2.352 l 0,0.066 c 0,0.831 0.168,1.614 0.498,2.355 0.333,0.741 0.798,1.395 1.398,1.962 0.6,0.567 1.323,1.02 2.169,1.356 0.843,0.339 1.776,0.51 2.799,0.51 z m -0.06,5.721 c -2.064,0 -3.975,-0.309 -5.733,-0.93 -1.761,-0.621 -3.276,-1.467 -4.551,-2.538 -1.275,-1.065 -2.274,-2.319 -3.003,-3.759 -0.723,-1.44 -1.089,-2.976 -1.089,-4.611 l 0,-0.066 c 0,-1.635 0.366,-3.177 1.089,-4.626 0.729,-1.449 1.743,-2.715 3.042,-3.792 1.299,-1.08 2.829,-1.932 4.587,-2.55 1.758,-0.624 3.672,-0.933 5.736,-0.933 2.064,0 3.975,0.309 5.736,0.933 1.758,0.618 3.273,1.464 4.548,2.532 1.275,1.071 2.277,2.322 3.003,3.759 0.726,1.44 1.089,2.979 1.089,4.611 l 0,0.066 c 0,1.635 -0.363,3.177 -1.089,4.629 -0.726,1.452 -1.74,2.712 -3.039,3.792 -1.302,1.08 -2.832,1.932 -4.59,2.553 -1.758,0.621 -3.669,0.93 -5.736,0.93"
         style="fill:#2d458d;fill-opacity:1;fill-rule:nonzero;stroke:none"
         id="path3015" />
      <path
         inkscape:connector-curvature="0"
         d="m 272.27214,276.74215 6.936,0 11.034,12.102 0,-12.102 7.305,0 0,22.89 -6.516,0 -11.457,-12.555 0,12.555 -7.302,0 0,-22.89"
         style="fill:#2d458d;fill-opacity:1;fill-rule:nonzero;stroke:none"
         id="path3017" />
      <path
         inkscape:connector-curvature="0"
         d="m 311.69214,282.30115 -8.031,0 0,-5.559 23.478,0 0,5.559 -8.031,0 0,17.331 -7.416,0 0,-17.331"
         style="fill:#2d458d;fill-opacity:1;fill-rule:nonzero;stroke:none"
         id="path3019" />
      <path
         inkscape:connector-curvature="0"
         d="m 345.56514,287.73115 c 1.275,0 2.256,-0.246 2.943,-0.738 0.69,-0.489 1.035,-1.149 1.035,-1.977 l 0,-0.066 c 0,-0.915 -0.36,-1.596 -1.071,-2.043 -0.714,-0.447 -1.698,-0.672 -2.946,-0.672 l -4.854,0 0,5.496 4.893,0 z m -12.312,-10.989 12.657,0 c 2.064,0 3.81,0.219 5.238,0.654 1.428,0.435 2.586,1.047 3.48,1.833 1.578,1.308 2.37,3.084 2.37,5.331 l 0,0.063 c 0,1.767 -0.498,3.228 -1.491,4.383 -0.996,1.155 -2.331,2.037 -4.014,2.649 l 6.384,7.977 -8.565,0 -5.391,-6.93 -3.249,0 0,6.93 -7.419,0 0,-22.89"
         style="fill:#2d458d;fill-opacity:1;fill-rule:nonzero;stroke:none"
         id="path3021" />
      <path
         inkscape:connector-curvature="0"
         d="m 377.12814,294.37015 c 1.023,0 1.953,-0.165 2.799,-0.492 0.843,-0.327 1.557,-0.768 2.145,-1.326 0.588,-0.555 1.05,-1.203 1.38,-1.944 0.333,-0.741 0.501,-1.527 0.501,-2.355 l 0,-0.066 c 0,-0.828 -0.168,-1.611 -0.501,-2.355 -0.33,-0.738 -0.804,-1.392 -1.416,-1.962 -0.615,-0.564 -1.344,-1.017 -2.187,-1.356 -0.843,-0.336 -1.776,-0.507 -2.796,-0.507 -1.026,0 -1.95,0.165 -2.781,0.489 -0.831,0.33 -1.548,0.771 -2.148,1.326 -0.6,0.555 -1.062,1.206 -1.38,1.947 -0.318,0.741 -0.48,1.524 -0.48,2.352 l 0,0.066 c 0,0.831 0.165,1.614 0.498,2.355 0.333,0.741 0.798,1.395 1.401,1.962 0.6,0.567 1.323,1.02 2.166,1.356 0.843,0.339 1.773,0.51 2.799,0.51 z m -0.057,5.721 c -2.067,0 -3.978,-0.309 -5.736,-0.93 -1.758,-0.621 -3.276,-1.467 -4.551,-2.538 -1.275,-1.065 -2.274,-2.319 -3,-3.759 -0.726,-1.44 -1.089,-2.976 -1.089,-4.611 l 0,-0.066 c 0,-1.635 0.363,-3.177 1.089,-4.626 0.726,-1.449 1.74,-2.715 3.042,-3.792 1.299,-1.08 2.826,-1.932 4.584,-2.55 1.761,-0.624 3.672,-0.933 5.736,-0.933 2.064,0 3.978,0.309 5.736,0.933 1.758,0.618 3.276,1.464 4.551,2.532 1.272,1.071 2.274,2.322 3,3.759 0.726,1.44 1.089,2.979 1.089,4.611 l 0,0.066 c 0,1.635 -0.363,3.177 -1.089,4.629 -0.726,1.452 -1.74,2.712 -3.039,3.792 -1.299,1.08 -2.829,1.932 -4.59,2.553 -1.758,0.621 -3.669,0.93 -5.733,0.93"
         style="fill:#2d458d;fill-opacity:1;fill-rule:nonzero;stroke:none"
         id="path3023" />
      <path
         inkscape:connector-curvature="0"
         d="m 398.25114,276.74215 7.419,0 0,17.331 12.96,0 0,5.559 -20.379,0 0,-22.89"
         style="fill:#2d458d;fill-opacity:1;fill-rule:nonzero;stroke:none"
         id="path3025" />
      <path
         inkscape:connector-curvature="0"
         d="m 438.12714,276.74215 21.489,0 0,5.397 -14.184,0 0,3.465 12.846,0 0,5.004 -12.846,0 0,3.63 14.376,0 0,5.394 -21.681,0 0,-22.89"
         style="fill:#2d458d;fill-opacity:1;fill-rule:nonzero;stroke:none"
         id="path3027" />
      <path
         inkscape:connector-curvature="0"
         d="m 477.01314,300.02515 c -2.397,0 -4.671,-0.318 -6.825,-0.954 -2.154,-0.636 -4.059,-1.59 -5.715,-2.862 l 4.128,-4.23 c 2.676,1.833 5.571,2.748 8.679,2.748 0.996,0 1.752,-0.135 2.274,-0.405 0.525,-0.273 0.786,-0.66 0.786,-1.161 l 0,-0.066 c 0,-0.237 -0.066,-0.45 -0.192,-0.636 -0.126,-0.183 -0.363,-0.363 -0.708,-0.537 -0.345,-0.174 -0.801,-0.345 -1.377,-0.507 -0.57,-0.165 -1.317,-0.33 -2.235,-0.507 -1.428,-0.282 -2.754,-0.594 -3.975,-0.93 -1.224,-0.336 -2.289,-0.771 -3.195,-1.305 -0.906,-0.534 -1.617,-1.197 -2.139,-1.992 -0.522,-0.792 -0.786,-1.779 -0.786,-2.952 l 0,-0.066 c 0,-1.068 0.237,-2.046 0.708,-2.937 0.471,-0.894 1.161,-1.668 2.067,-2.319 0.903,-0.654 1.992,-1.161 3.267,-1.518 1.275,-0.36 2.715,-0.537 4.32,-0.537 2.295,0 4.341,0.258 6.138,0.771 1.794,0.516 3.42,1.278 4.875,2.286 l -3.711,4.494 c -1.221,-0.738 -2.478,-1.302 -3.765,-1.683 -1.287,-0.381 -2.529,-0.573 -3.729,-0.573 -0.891,0 -1.56,0.141 -2.007,0.426 -0.447,0.282 -0.669,0.63 -0.669,1.044 l 0,0.066 c 0,0.261 0.072,0.489 0.21,0.684 0.141,0.195 0.384,0.375 0.729,0.54 0.342,0.165 0.813,0.327 1.413,0.489 0.6,0.162 1.356,0.333 2.274,0.507 1.53,0.282 2.913,0.615 4.149,0.993 1.236,0.381 2.289,0.843 3.156,1.389 0.864,0.546 1.527,1.203 1.989,1.974 0.456,0.774 0.684,1.695 0.684,2.757 l 0,0.069 c 0,1.173 -0.261,2.217 -0.78,3.132 -0.525,0.912 -1.257,1.692 -2.202,2.334 -0.942,0.642 -2.076,1.131 -3.402,1.47 -1.323,0.336 -2.802,0.504 -4.434,0.504"
         style="fill:#2d458d;fill-opacity:1;fill-rule:nonzero;stroke:none"
         id="path3029" />
      <path
         inkscape:connector-curvature="0"
         d="m 505.22814,288.12115 c 1.326,0 2.364,-0.267 3.117,-0.804 0.75,-0.537 1.128,-1.266 1.128,-2.184 l 0,-0.069 c 0,-0.987 -0.378,-1.737 -1.128,-2.25 -0.753,-0.516 -1.803,-0.774 -3.156,-0.774 l -3.477,0 0,6.081 3.516,0 z m -10.935,-11.379 11.472,0 c 1.68,0 3.213,0.18 4.587,0.54 1.377,0.36 2.547,0.882 3.516,1.569 0.972,0.687 1.713,1.533 2.238,2.535 0.522,1.005 0.783,2.136 0.783,3.402 l 0,0.066 c 0,1.35 -0.285,2.538 -0.858,3.564 -0.573,1.023 -1.371,1.884 -2.391,2.583 -1.02,0.699 -2.238,1.221 -3.651,1.569 -1.413,0.348 -2.952,0.522 -4.608,0.522 l -3.669,0 0,6.54 -7.419,0 0,-22.89"
         style="fill:#2d458d;fill-opacity:1;fill-rule:nonzero;stroke:none"
         id="path3031" />
      <path
         inkscape:connector-curvature="0"
         d="m 522.89214,276.74215 21.489,0 0,5.397 -14.184,0 0,3.465 12.846,0 0,5.004 -12.846,0 0,3.63 14.373,0 0,5.394 -21.678,0 0,-22.89"
         style="fill:#2d458d;fill-opacity:1;fill-rule:nonzero;stroke:none"
         id="path3033" />
      <path
         inkscape:connector-curvature="0"
         d="m 564.14514,300.09115 c -1.911,0 -3.708,-0.294 -5.391,-0.882 -1.68,-0.588 -3.141,-1.413 -4.377,-2.469 -1.236,-1.059 -2.217,-2.313 -2.943,-3.762 -0.726,-1.449 -1.089,-3.024 -1.089,-4.725 l 0,-0.066 c 0,-1.656 0.354,-3.21 1.068,-4.659 0.717,-1.449 1.698,-2.715 2.946,-3.792 1.248,-1.08 2.733,-1.926 4.455,-2.535 1.719,-0.612 3.6,-0.915 5.64,-0.915 1.374,0 2.625,0.114 3.747,0.342 1.119,0.228 2.145,0.555 3.078,0.981 0.927,0.426 1.77,0.93 2.523,1.521 0.75,0.588 1.419,1.23 2.004,1.929 l -5.58,3.693 c -0.765,-0.825 -1.605,-1.479 -2.523,-1.959 -0.918,-0.48 -2.025,-0.72 -3.327,-0.72 -0.945,0 -1.803,0.159 -2.58,0.474 -0.777,0.315 -1.446,0.747 -2.007,1.293 -0.561,0.543 -1.002,1.188 -1.32,1.929 -0.318,0.741 -0.48,1.524 -0.48,2.352 l 0,0.066 c 0,0.852 0.162,1.653 0.48,2.406 0.318,0.75 0.759,1.401 1.32,1.944 0.561,0.546 1.23,0.975 2.007,1.29 0.777,0.318 1.635,0.477 2.58,0.477 0.687,0 1.32,-0.066 1.893,-0.198 0.573,-0.129 1.095,-0.321 1.566,-0.57 0.471,-0.252 0.918,-0.546 1.341,-0.882 0.417,-0.339 0.834,-0.717 1.242,-1.131 l 5.583,3.402 c -0.639,0.741 -1.335,1.425 -2.085,2.058 -0.753,0.633 -1.608,1.179 -2.562,1.638 -0.957,0.456 -2.025,0.816 -3.213,1.077 -1.185,0.261 -2.517,0.393 -3.996,0.393"
         style="fill:#2d458d;fill-opacity:1;fill-rule:nonzero;stroke:none"
         id="path3035" />
      <path
         inkscape:connector-curvature="0"
         d="m 582.19314,299.63215 7.45665,0 0,-22.89024 -7.45665,0 0,22.89024 z"
         style="fill:#2d458d;fill-opacity:1;fill-rule:nonzero;stroke:none"
         id="path3037" />
      <path
         inkscape:connector-curvature="0"
         d="m 613.16214,290.64115 -2.982,-6.51 -3.021,6.51 6.003,0 z m -6.498,-14.064 7.149,0 11.394,23.055 -7.953,0 -1.95,-4.086 -10.323,0 -1.911,4.086 -7.8,0 11.394,-23.055"
         style="fill:#2d458d;fill-opacity:1;fill-rule:nonzero;stroke:none"
         id="path3039" />
      <path
         inkscape:connector-curvature="0"
         d="m 630.67614,276.74215 7.413,0 0,17.331 12.963,0 0,5.559 -20.376,0 0,-22.89"
         style="fill:#2d458d;fill-opacity:1;fill-rule:nonzero;stroke:none"
         id="path3041" />
      <path
         inkscape:connector-curvature="0"
         d="m 657.24714,299.63215 7.45548,0 0,-22.89024 -7.45548,0 0,22.89024 z"
         style="fill:#2d458d;fill-opacity:1;fill-rule:nonzero;stroke:none"
         id="path3043" />
      <path
         inkscape:connector-curvature="0"
         d="m 671.62014,295.02115 13.422,-12.915 -12.96,0 0,-5.364 23.208,0 0,4.611 -13.422,12.918 13.422,0 0,5.361 -23.67,0 0,-4.611"
         style="fill:#2d458d;fill-opacity:1;fill-rule:nonzero;stroke:none"
         id="path3045" />
      <path
         inkscape:connector-curvature="0"
         d="m 717.77214,290.64115 -2.982,-6.51 -3.021,6.51 6.003,0 z m -6.501,-14.064 7.149,0 11.394,23.055 -7.95,0 -1.953,-4.086 -10.323,0 -1.911,4.086 -7.8,0 11.394,-23.055"
         style="fill:#2d458d;fill-opacity:1;fill-rule:nonzero;stroke:none"
         id="path3047" />
      <path
         inkscape:connector-curvature="0"
         d="m 745.73214,294.00715 c 2.226,0 4.014,-0.501 5.37,-1.503 1.356,-1.002 2.034,-2.43 2.034,-4.284 l 0,-0.066 c 0,-1.83 -0.678,-3.252 -2.034,-4.266 -1.356,-1.014 -3.144,-1.521 -5.37,-1.521 l -3.033,0 0,11.64 3.033,0 z m -10.449,-17.265 10.323,0 c 2.394,0 4.53,0.279 6.402,0.834 1.875,0.555 3.456,1.335 4.743,2.34 1.284,1.002 2.268,2.196 2.943,3.579 0.675,1.386 1.014,2.907 1.014,4.563 l 0,0.063 c 0,1.659 -0.345,3.189 -1.032,4.596 -0.69,1.404 -1.683,2.622 -2.982,3.645 -1.302,1.026 -2.901,1.827 -4.8,2.406 -1.899,0.579 -4.047,0.864 -6.441,0.864 l -10.17,0 0,-22.89"
         style="fill:#2d458d;fill-opacity:1;fill-rule:nonzero;stroke:none"
         id="path3049" />
      <path
         inkscape:connector-curvature="0"
         d="m 780.91314,294.37015 c 1.023,0 1.956,-0.165 2.799,-0.492 0.846,-0.327 1.56,-0.768 2.148,-1.326 0.588,-0.555 1.047,-1.203 1.38,-1.944 0.33,-0.741 0.498,-1.527 0.498,-2.355 l 0,-0.066 c 0,-0.828 -0.168,-1.611 -0.498,-2.355 -0.333,-0.738 -0.807,-1.392 -1.419,-1.962 -0.612,-0.564 -1.341,-1.017 -2.184,-1.356 -0.843,-0.336 -1.776,-0.507 -2.799,-0.507 -1.023,0 -1.95,0.165 -2.781,0.489 -0.831,0.33 -1.545,0.771 -2.148,1.326 -0.6,0.555 -1.059,1.206 -1.38,1.947 -0.318,0.741 -0.477,1.524 -0.477,2.352 l 0,0.066 c 0,0.831 0.165,1.614 0.498,2.355 0.333,0.741 0.798,1.395 1.401,1.962 0.6,0.567 1.32,1.02 2.163,1.356 0.846,0.339 1.779,0.51 2.799,0.51 z m -0.057,5.721 c -2.064,0 -3.975,-0.309 -5.736,-0.93 -1.758,-0.621 -3.273,-1.467 -4.548,-2.538 -1.275,-1.065 -2.277,-2.319 -3,-3.759 -0.729,-1.44 -1.092,-2.976 -1.092,-4.611 l 0,-0.066 c 0,-1.635 0.363,-3.177 1.092,-4.626 0.723,-1.449 1.737,-2.715 3.039,-3.792 1.299,-1.08 2.829,-1.932 4.587,-2.55 1.758,-0.624 3.669,-0.933 5.736,-0.933 2.064,0 3.975,0.309 5.736,0.933 1.758,0.618 3.273,1.464 4.548,2.532 1.275,1.071 2.277,2.322 3.003,3.759 0.726,1.44 1.089,2.979 1.089,4.611 l 0,0.066 c 0,1.635 -0.363,3.177 -1.089,4.629 -0.726,1.452 -1.74,2.712 -3.042,3.792 -1.299,1.08 -2.829,1.932 -4.587,2.553 -1.761,0.621 -3.672,0.93 -5.736,0.93"
         style="fill:#2d458d;fill-opacity:1;fill-rule:nonzero;stroke:none"
         id="path3051" />
      <path
         inkscape:connector-curvature="0"
         d="m 815.49714,276.74215 7.839,0 6.384,8.862 6.384,-8.862 7.839,0 0,22.89 -7.38,0 0,-13.143 -6.825,8.958 -0.153,0 -6.786,-8.895 0,13.08 -7.302,0 0,-22.89"
         style="fill:#2d458d;fill-opacity:1;fill-rule:nonzero;stroke:none"
         id="path3053" />
      <path
         inkscape:connector-curvature="0"
         d="m 862.75314,269.15815 6.768,1.863 -5.622,4.185 -5.121,0 3.975,-6.048 z m -11.202,7.584 21.486,0 0,5.397 -14.184,0 0,3.465 12.846,0 0,5.004 -12.846,0 0,3.63 14.376,0 0,5.394 -21.678,0 0,-22.89"
         style="fill:#2d458d;fill-opacity:1;fill-rule:nonzero;stroke:none"
         id="path3055" />
      <path
         inkscape:connector-curvature="0"
         d="m 887.14614,287.99215 -8.793,-11.25 8.526,0 4.74,6.441 4.782,-6.441 8.334,0 -8.793,11.184 9.174,11.706 -8.526,0 -5.124,-6.897 -5.16,6.897 -8.334,0 9.174,-11.64"
         style="fill:#2d458d;fill-opacity:1;fill-rule:nonzero;stroke:none"
         id="path3057" />
      <path
         inkscape:connector-curvature="0"
         d="m 910.92714,299.63215 7.45665,0 0,-22.89024 -7.45665,0 0,22.89024 z"
         style="fill:#2d458d;fill-opacity:1;fill-rule:nonzero;stroke:none"
         id="path3059" />
      <path
         inkscape:connector-curvature="0"
         d="m 939.02814,300.09115 c -1.911,0 -3.708,-0.294 -5.388,-0.882 -1.683,-0.588 -3.144,-1.413 -4.38,-2.469 -1.236,-1.059 -2.217,-2.313 -2.943,-3.762 -0.726,-1.449 -1.089,-3.024 -1.089,-4.725 l 0,-0.066 c 0,-1.656 0.354,-3.21 1.071,-4.659 0.711,-1.449 1.695,-2.715 2.943,-3.792 1.248,-1.08 2.733,-1.926 4.455,-2.535 1.719,-0.612 3.6,-0.915 5.637,-0.915 1.377,0 2.625,0.114 3.747,0.342 1.122,0.228 2.148,0.555 3.078,0.981 0.93,0.426 1.773,0.93 2.526,1.521 0.75,0.588 1.419,1.23 2.004,1.929 l -5.58,3.693 c -0.765,-0.825 -1.605,-1.479 -2.523,-1.959 -0.918,-0.48 -2.028,-0.72 -3.327,-0.72 -0.945,0 -1.803,0.159 -2.58,0.474 -0.78,0.315 -1.446,0.747 -2.007,1.293 -0.561,0.543 -1.002,1.188 -1.32,1.929 -0.321,0.741 -0.48,1.524 -0.48,2.352 l 0,0.066 c 0,0.852 0.159,1.653 0.48,2.406 0.318,0.75 0.759,1.401 1.32,1.944 0.561,0.546 1.227,0.975 2.007,1.29 0.777,0.318 1.635,0.477 2.58,0.477 0.69,0 1.32,-0.066 1.893,-0.198 0.573,-0.129 1.095,-0.321 1.566,-0.57 0.471,-0.252 0.918,-0.546 1.338,-0.882 0.423,-0.339 0.837,-0.717 1.245,-1.131 l 5.58,3.402 c -0.636,0.741 -1.332,1.425 -2.082,2.058 -0.753,0.633 -1.605,1.179 -2.562,1.638 -0.957,0.456 -2.028,0.816 -3.213,1.077 -1.185,0.261 -2.517,0.393 -3.996,0.393"
         style="fill:#2d458d;fill-opacity:1;fill-rule:nonzero;stroke:none"
         id="path3061" />
      <path
         inkscape:connector-curvature="0"
         d="m 970.43814,294.37015 c 1.023,0 1.956,-0.165 2.799,-0.492 0.843,-0.327 1.56,-0.768 2.148,-1.326 0.585,-0.555 1.047,-1.203 1.38,-1.944 0.33,-0.741 0.498,-1.527 0.498,-2.355 l 0,-0.066 c 0,-0.828 -0.168,-1.611 -0.498,-2.355 -0.333,-0.738 -0.807,-1.392 -1.419,-1.962 -0.615,-0.564 -1.344,-1.017 -2.187,-1.356 -0.843,-0.336 -1.776,-0.507 -2.799,-0.507 -1.02,0 -1.95,0.165 -2.778,0.489 -0.831,0.33 -1.548,0.771 -2.148,1.326 -0.603,0.555 -1.059,1.206 -1.38,1.947 -0.321,0.741 -0.48,1.524 -0.48,2.352 l 0,0.066 c 0,0.831 0.168,1.614 0.498,2.355 0.333,0.741 0.798,1.395 1.404,1.962 0.597,0.567 1.32,1.02 2.163,1.356 0.843,0.339 1.776,0.51 2.799,0.51 z m -0.057,5.721 c -2.064,0 -3.975,-0.309 -5.736,-0.93 -1.758,-0.621 -3.276,-1.467 -4.548,-2.538 -1.275,-1.065 -2.277,-2.319 -3.003,-3.759 -0.726,-1.44 -1.092,-2.976 -1.092,-4.611 l 0,-0.066 c 0,-1.635 0.366,-3.177 1.092,-4.626 0.726,-1.449 1.74,-2.715 3.039,-3.792 1.302,-1.08 2.832,-1.932 4.587,-2.55 1.761,-0.624 3.672,-0.933 5.736,-0.933 2.064,0 3.975,0.309 5.736,0.933 1.761,0.618 3.276,1.464 4.551,2.532 1.275,1.071 2.274,2.322 3,3.759 0.729,1.44 1.089,2.979 1.089,4.611 l 0,0.066 c 0,1.635 -0.36,3.177 -1.089,4.629 -0.726,1.452 -1.74,2.712 -3.039,3.792 -1.302,1.08 -2.829,1.932 -4.59,2.553 -1.758,0.621 -3.669,0.93 -5.733,0.93"
         style="fill:#2d458d;fill-opacity:1;fill-rule:nonzero;stroke:none"
         id="path3063" />
      <path
         inkscape:connector-curvature="0"
         d="m 966.22914,170.15215 c -0.6,1.602 -1.446,3.066 -2.508,4.332 -0.942,1.116 -2.133,2.067 -3.54,2.817 -0.975,0.522 -2.109,0.771 -3.48,0.771 -1.536,0 -2.352,-0.249 -2.631,-0.36 -0.411,-0.159 -0.537,-0.285 -0.54,-0.285 -0.177,-0.189 -0.327,-0.459 -0.453,-0.807 -0.162,-0.459 -0.357,-1.269 -0.357,-2.526 0,-1.326 0.294,-2.784 0.873,-4.338 0.606,-1.623 1.449,-3.084 2.508,-4.347 0.945,-1.122 2.139,-2.073 3.546,-2.823 0.972,-0.516 2.109,-0.768 3.477,-0.768 1.533,0 2.358,0.252 2.643,0.363 0.318,0.123 0.489,0.243 0.528,0.279 0.171,0.186 0.327,0.459 0.453,0.819 0.162,0.453 0.354,1.266 0.354,2.517 0,1.323 -0.294,2.787 -0.873,4.356 z m -126.378,-73.605 c 10.788,-4.062 22.326,-6.114 34.377,-6.114 l 0,0 c -12.051,0 -23.589,2.052 -34.377,6.114 z m -40.635,28.359 c 0.204,-0.237 0.408,-0.477 0.615,-0.714 -0.207,0.237 -0.411,0.477 -0.615,0.714 z m 4.686,-5.094 c -0.024,0.024 -0.048,0.051 -0.075,0.078 0.027,-0.027 0.051,-0.054 0.075,-0.078 8.889,-8.964 19.443,-16.164 31.377,-21.402 -11.934,5.238 -22.488,12.438 -31.377,21.402 z m -6.348,2.73 -2.025,6.864 c 0.003,-0.006 0.009,-0.009 0.012,-0.018 -0.003,0.009 -0.009,0.012 -0.015,0.018 l 2.028,-6.864 z m -96.822,-11.586 -13.365,13.953 0,-0.003 13.365,-13.95 c 2.244,-2.337 5.34,-3.66 8.58,-3.66 l 0,0 c -3.24,0 -6.336,1.323 -8.58,3.66 z m -79.926,78.966 c 0.486,-3.129 -0.288,-6.348 -2.208,-8.922 -0.603,-0.804 -1.296,-1.521 -2.064,-2.142 0.858,-1.116 1.524,-2.397 1.947,-3.801 l 5.478,-18.168 c 0.741,-2.463 0.657,-5.064 -0.189,-7.425 5.049,-0.216 9.432,-3.612 10.881,-8.49 l 3.63,-12.222 14.604,29.841 -32.079,31.329 z m -75.591,-74.109 -1.041,3.516 c 0,0 0,-0.006 0,-0.006 l 1.038,-3.51 c 1.494,-5.052 6.132,-8.517 11.4,-8.517 -5.268,0 -9.906,3.465 -11.397,8.517 z m -46.839,-4.905 -21.417,22.086 21.417,-22.086 c 2.238,-2.31 5.316,-3.612 8.532,-3.612 -3.216,0 -6.294,1.302 -8.532,3.612 z m -73.407,4.905 c 1.491,-5.052 6.132,-8.517 11.397,-8.517 -5.265,0 -9.906,3.465 -11.397,8.517 z m -132.417,96.306 -12.246,-12.738 c -2.325,-2.412 -5.439,-3.645 -8.568,-3.645 -2.664,0 -5.337,0.891 -7.542,2.703 -4.602,3.783 -9.099,6.783 -13.371,8.919 -3.372,1.686 -7.659,2.541 -12.747,2.541 -3.702,0 -7.029,-0.558 -9.876,-1.659 -2.751,-1.068 -5.061,-2.538 -7.062,-4.497 -1.986,-1.941 -3.48,-4.203 -4.575,-6.921 -1.137,-2.808 -1.707,-6.075 -1.707,-9.729 0,-6.15 1.08,-11.748 3.3,-17.112 2.235,-5.397 5.244,-10.119 8.952,-14.04 3.753,-3.969 7.926,-7.035 12.75,-9.366 4.497,-2.175 9.018,-3.231 13.818,-3.231 6.192,0 11.019,1.125 14.346,3.342 4.086,2.727 7.872,6.54 11.25,11.328 2.313,3.282 5.985,5.037 9.72,5.037 2.355,0 4.734,-0.699 6.81,-2.151 l 10.464,-7.335 -14.646,49.593 c -0.891,3.015 -0.528,6.231 0.93,8.961 z m -109.353,-87.951 c 0.207,-0.234 0.402,-0.471 0.609,-0.702 -0.207,0.231 -0.402,0.471 -0.609,0.702 z m 4.05,-4.356 c -0.081,0.081 -0.156,0.165 -0.234,0.249 0.078,-0.084 0.153,-0.168 0.234,-0.249 8.889,-8.967 19.446,-16.164 31.377,-21.402 10.563,-4.632 21.918,-7.266 33.819,-7.854 -11.901,0.588 -23.256,3.222 -33.819,7.854 -11.931,5.238 -22.488,12.435 -31.377,21.402 z m -7.14,8.028 c 0.117,-0.147 0.228,-0.294 0.345,-0.441 -0.117,0.147 -0.228,0.294 -0.345,0.441 z m -2.9511,3.861 c 0.0351,-0.048 0.0678,-0.096 0.1017,-0.144 -0.0339,0.048 -0.0666,0.096 -0.1017,0.144 z m -2.8665,4.149 c 0.008,-0.012 0.0165,-0.024 0.0234,-0.036 -0.008,0.015 -0.0177,0.027 -0.0258,0.039 l 0.002,-0.003 z m 127.5876,-33.381 c -1.128,-0.747 -2.277,-1.476 -3.453,-2.166 1.176,0.69 2.325,1.419 3.453,2.166 z m 3.933,2.766 c -0.948,-0.714 -1.911,-1.404 -2.898,-2.076 0.987,0.672 1.953,1.362 2.898,2.076 z m 3.264,2.613 c -0.636,-0.534 -1.278,-1.059 -1.929,-1.572 0.648,0.516 1.296,1.038 1.929,1.572 z m 2.778,2.481 c -0.402,-0.375 -0.798,-0.756 -1.209,-1.122 0.411,0.366 0.81,0.747 1.209,1.122 z m 2.952,2.904 c 0.246,0.258 0.495,0.513 0.741,0.774 -0.246,-0.261 -0.495,-0.519 -0.741,-0.774 z m 8.478,-4.575 c -2.775,1.461 -4.935,3.999 -5.868,7.155 l -0.057,0.195 c 0,0 0,0 -0.003,0 l 0.06,-0.195 c 0.933,-3.156 3.093,-5.694 5.868,-7.155 z m 220.299,6.804 c 0.012,0.027 0.021,0.051 0.03,0.081 -0.009,-0.03 -0.018,-0.054 -0.03,-0.081 z m -0.813,-1.887 c 0.066,0.12 0.126,0.24 0.186,0.36 -0.06,-0.12 -0.12,-0.24 -0.186,-0.36 z m 88.593,-5.979 c -0.225,-0.051 -0.453,-0.081 -0.684,-0.12 0.231,0.039 0.459,0.069 0.684,0.12 z m 1.236,0.357 c -0.141,-0.048 -0.285,-0.084 -0.423,-0.126 0.138,0.042 0.282,0.075 0.423,0.126 z m 1.173,0.48 c -0.084,-0.036 -0.165,-0.072 -0.246,-0.108 0.081,0.039 0.165,0.069 0.246,0.108 z m 1.107,0.594 c -0.039,-0.024 -0.084,-0.045 -0.123,-0.069 0.039,0.024 0.084,0.045 0.123,0.069 z m -4.809,-1.653 c -0.441,-0.051 -0.888,-0.078 -1.341,-0.078 0.453,0 0.9,0.027 1.341,0.078 z m 6.813,3.186 c -0.003,-0.003 -0.006,-0.003 -0.006,-0.003 0,0 0.003,0 0.006,0.003 z m 5.202,-2.262 c -0.204,0.09 -0.402,0.186 -0.6,0.288 0.198,-0.102 0.396,-0.198 0.6,-0.288 z m 1.356,-0.492 c -0.246,0.072 -0.483,0.15 -0.723,0.237 0.24,-0.087 0.477,-0.165 0.723,-0.237 z m 1.473,-0.339 c -0.294,0.051 -0.594,0.105 -0.885,0.174 0.294,-0.072 0.591,-0.123 0.885,-0.174 z m 1.911,-0.171 c -0.48,0 -0.954,0.033 -1.422,0.09 0.468,-0.057 0.942,-0.09 1.422,-0.09 z m -7.35,2.571 c 0.06,-0.051 0.114,-0.105 0.177,-0.153 -0.063,0.048 -0.117,0.102 -0.177,0.153 z m 0.885,-0.633 c 0.153,-0.099 0.303,-0.201 0.462,-0.294 -0.159,0.093 -0.309,0.195 -0.462,0.294 z m -4.485,0.474 c 0.012,0.009 0.024,0.018 0.039,0.027 -0.015,-0.009 -0.027,-0.018 -0.039,-0.027 z m 1.896,1.788 -0.003,0 0.003,0 0,0 z m 369.06296,36.078 c -0.066,-0.159 -0.138,-0.315 -0.207,-0.474 l 0.105,0.027 c 0,0 -5.628,-53.1 -159.52796,-66.363 -80.643,-6.951 -100.083,-10.014 -100.083,-10.014 0,0 -126.072,-70.119 -166.611,-68.871 0,0 -63.72,-5.898 -187.932,7.971 -59.241,6.615 -164.778,37.539 -192.45,36.522 -27.4317,-1.014 -42.3942,-0.39 -79.6386,-10.281 0,0 7.1685,16.023 6.75,27.477 -0.1593,4.38 -3.8742,11.679 -9.5064,20.334 l -115.4259,118.923 c -2.2854,2.352 -2.9403,5.847 -1.6617,8.871 1.2771,3.021 4.2408,4.986 7.5234,4.986 l 45.6021,0 c 2.1741,0 4.26,-0.867 5.7927,-2.412 l 29.2806,-29.448 20.3307,0.171 -7.329,21.141 c -0.8658,2.499 -0.4698,5.259 1.0629,7.413 1.533,2.154 4.0125,3.432 6.6552,3.432 l 32.0988,0 c 3.5274,0 6.6564,-2.265 7.7589,-5.613 l 8.9322,-27.123 c -0.0576,1.353 -0.1032,2.712 -0.1032,4.077 0,11.181 2.0202,21.507 6.0081,30.699 4.0233,9.276 9.7536,17.295 17.0292,23.82 7.14,6.417 15.69,11.424 25.407,14.871 9.525,3.387 20.013,5.103 31.173,5.103 13.767,0 25.914,-2.46 36.108,-7.311 9.663,-4.602 18.528,-10.593 26.346,-17.802 2.349,-2.166 3.729,-5.184 3.825,-8.379 0.096,-3.192 -1.098,-6.291 -3.312,-8.592 l -3.825,-3.978 c 1.8,1.056 3.864,1.653 6.006,1.653 l 72.792,0 c 5.262,0 9.894,-3.459 11.391,-8.499 l 5.469,-18.417 c 1.068,-3.594 0.375,-7.482 -1.866,-10.488 -0.603,-0.804 -1.299,-1.521 -2.067,-2.142 0.858,-1.119 1.527,-2.397 1.95,-3.804 l 5.472,-18.168 c 0.744,-2.46 0.657,-5.061 -0.186,-7.422 5.049,-0.216 9.435,-3.612 10.881,-8.49 l 5.472,-18.414 -4.743,15.969 c 2.952,0.012 6.708,0.036 10.662,0.063 l -19.068,64.566 c -1.059,3.591 -0.363,7.476 1.878,10.476 2.244,3.003 5.772,4.77 9.519,4.77 l 22.443,0 c 5.265,0 9.903,-3.465 11.394,-8.514 l 6.447,-21.822 1.527,3.675 c 1.845,4.428 6.171,7.317 10.971,7.317 l 1.425,0 c 3.135,0 6.147,-1.239 8.37,-3.45 l 2.088,-2.07 -2.829,9.636 c -1.053,3.591 -0.354,7.47 1.89,10.467 2.244,2.997 5.769,4.761 9.51,4.761 l 22.71,0 c 5.268,0 9.906,-3.465 11.4,-8.517 l 1.038,-3.519 c -0.036,2.586 0.762,5.148 2.346,7.266 2.244,3.003 5.772,4.77 9.516,4.77 l 72.789,0 c 3.342,0 6.426,-1.404 8.619,-3.72 2.202,2.316 5.271,3.72 8.592,3.72 l 28.881,0 c 3.252,0 6.354,-1.329 8.598,-3.678 l 14.556,-15.252 5.205,11.832 c 1.896,4.314 6.162,7.098 10.875,7.098 l 25.143,0 c 4.104,0 7.917,-2.118 10.089,-5.607 2.166,-3.483 2.385,-7.845 0.57,-11.526 l -17.382,-35.289 29.676,-29.043 c 3.027,-0.018 6.054,-0.039 9.072,-0.057 l 6.219,-21.069 c 1.494,-5.052 6.129,-8.517 11.397,-8.517 -5.265,0 -9.903,3.465 -11.394,8.517 l -25.794,87.345 c -1.062,3.591 -0.366,7.476 1.875,10.476 2.247,3.003 5.772,4.77 9.519,4.77 l 22.443,0 c 5.265,0 9.903,-3.465 11.397,-8.517 l 3.639,-12.321 c 0.816,7.665 2.649,14.856 5.511,21.456 4.02,9.273 9.747,17.289 17.031,23.82 7.137,6.414 15.687,11.424 25.401,14.868 9.525,3.387 20.016,5.103 31.176,5.103 13.764,0 25.914,-2.46 36.108,-7.311 9.663,-4.602 18.525,-10.593 26.346,-17.802 2.349,-2.166 3.726,-5.184 3.822,-8.379 0.096,-3.192 -1.098,-6.288 -3.312,-8.592 l -20.529,-21.345 c -2.322,-2.415 -5.439,-3.648 -8.565,-3.648 -2.664,0 -5.334,0.891 -7.539,2.7 -4.614,3.789 -9.114,6.789 -13.374,8.922 -3.375,1.686 -7.665,2.541 -12.75,2.541 -3.702,0 -7.026,-0.558 -9.876,-1.659 -2.748,-1.068 -5.055,-2.538 -7.065,-4.497 -1.98,-1.941 -3.477,-4.203 -4.572,-6.924 -1.134,-2.811 -1.707,-6.075 -1.707,-9.726 0,-6.147 1.08,-11.742 3.303,-17.115 2.229,-5.388 5.241,-10.113 8.949,-14.04 3.75,-3.966 7.923,-7.032 12.753,-9.363 4.494,-2.175 9.015,-3.231 13.815,-3.231 6.192,0 11.022,1.125 14.349,3.342 4.083,2.724 7.869,6.537 11.244,11.325 2.313,3.285 5.988,5.04 9.723,5.04 2.016,0 4.041,-0.549 5.886,-1.611 -1.197,4.473 -1.818,9.039 -1.818,13.641 0,6.096 1.107,11.895 3.282,17.232 2.181,5.37 5.34,10.152 9.384,14.208 4.095,4.086 8.994,7.278 14.58,9.501 5.481,2.178 11.526,3.282 17.967,3.282 8.124,0 15.732,-1.596 22.602,-4.743 6.645,-3.039 12.462,-7.143 17.301,-12.192 4.824,-5.046 8.60696,-10.878 11.25296,-17.343 2.673,-6.525 4.029,-13.329 4.029,-20.217 0,-6.096 -1.101,-11.895 -3.276,-17.235"
         style="fill:#2d458d;fill-opacity:1;fill-rule:nonzero;stroke:none"
         id="path3065" />
      <path
         inkscape:connector-curvature="0"
         d="m 434.59014,17.92315 c 0,0 114.723,-11.649 154.518,-5.802 47.193,6.93 133.641,61.515 133.641,61.515 0,0 -160.383,23.535 -304.308,-5.016 8.592,-30.135 16.149,-50.697 16.149,-50.697"
         style="fill:#ffffff;fill-opacity:1;fill-rule:nonzero;stroke:none"
         id="path3067" />
      <path
         inkscape:connector-curvature="0"
         d="m 423.83514,17.62015 -16.857,48.591 c 0,0 -69.345,-18.351 -113.964,-19.65 67.239,-18.708 86.238,-27.207 130.821,-28.941"
         style="fill:#ffffff;fill-opacity:1;fill-rule:nonzero;stroke:none"
         id="path3069" />
      <path
         inkscape:connector-curvature="0"
         d="m 599.89914,94.69915 c -0.447,0 -0.888,-0.105 -1.293,-0.321 -1.5,-0.795 -14.721,-8.064 -16.146,-17.337 -0.372,-2.427 -0.075,-6.072 3.456,-9.663 4.833,-4.911 15.084,-13.155 29.412,-13.155 14.574,0 29.148,8.427 43.311,25.041 0.756,0.888 0.87,2.157 0.285,3.168 -0.498,0.855 -1.413,1.365 -2.376,1.365 -0.174,0 -0.348,-0.018 -0.522,-0.051 -2.424,-0.465 -5.148,-0.702 -8.109,-0.702 -20.616,0 -46.653,11.31 -46.914,11.424 -0.354,0.156 -0.729,0.231 -1.104,0.231 l 0,0"
         style="fill:#c01f36;fill-opacity:1;fill-rule:nonzero;stroke:none"
         id="path3071" />
      <path
         inkscape:connector-curvature="0"
         d="m 615.33114,51.47515 0,5.499 0,-5.499 -0.003,0 c -15.333,0 -26.235,8.757 -31.371,13.974 -4.332,4.401 -4.683,8.961 -4.215,12.009 1.596,10.377 14.922,17.94 17.577,19.35 0.807,0.426 1.692,0.642 2.58,0.642 0.75,0 1.503,-0.153 2.208,-0.462 0.252,-0.111 25.815,-11.196 45.81,-11.193 2.784,0 5.337,0.219 7.587,0.651 0.348,0.069 0.699,0.099 1.044,0.099 1.929,0 3.753,-1.017 4.752,-2.73 1.176,-2.019 0.948,-4.56 -0.567,-6.336 -14.712,-17.256 -29.988,-26.004 -45.402,-26.004 l 0,0 z m -0.003,5.499 c 11.775,0 25.854,6.051 41.217,24.072 -2.715,-0.525 -5.619,-0.753 -8.628,-0.753 -21.432,0 -48.018,11.658 -48.018,11.658 0,0 -22.53,-11.967 -12.021,-22.644 6.123,-6.222 15.621,-12.33 27.45,-12.333"
         style="fill:#ffffff;fill-opacity:1;fill-rule:nonzero;stroke:none"
         id="path3073" />
      <path
         inkscape:connector-curvature="0"
         d="m 146.87544,65.60215 41.9487,0 -47.1612,143.208 -32.0988,0 11.0556,-31.89 -35.1447,-0.297 -31.704,31.89 -45.6021,0 138.7065,-142.911"
         style="fill:#c01f36;fill-opacity:1;fill-rule:nonzero;stroke:none"
         id="path3075" />
      <path
         inkscape:connector-curvature="0"
         d="m 146.87544,65.60215 41.9487,0 -47.1612,143.208 -32.0988,0 11.0556,-31.89 -35.1447,-0.297 -31.704,31.89 -45.6021,0 138.7065,-142.911 z"
         style="fill:none;stroke:#ffffff;stroke-width:7.56084013;stroke-linecap:round;stroke-linejoin:round;stroke-miterlimit:4;stroke-opacity:1;stroke-dasharray:none"
         id="path3077" />
      <path
         inkscape:connector-curvature="0"
         d="m 303.01614,210.16315 c -1.146,0 -2.229,-0.543 -2.916,-1.461 -0.687,-0.921 -0.9,-2.109 -0.576,-3.21 l 25.794,-87.345 c 0.459,-1.548 1.881,-2.61 3.492,-2.61 l 72.123,0 c 1.149,0 2.229,0.54 2.916,1.464 0.69,0.921 0.9,2.109 0.573,3.213 l -5.466,18.414 c -0.459,1.545 -1.878,2.604 -3.492,2.604 l -47.079,0 -2.508,8.586 38.904,0 c 1.152,0 2.235,0.543 2.922,1.467 0.687,0.924 0.897,2.121 0.564,3.225 l -5.472,18.168 c -0.465,1.536 -1.881,2.592 -3.489,2.592 l -41.034,0 -2.733,9.195 45.738,0 c 1.149,0 2.229,0.543 2.919,1.464 0.687,0.921 0.9,2.112 0.573,3.213 l -5.469,18.417 c -0.459,1.545 -1.878,2.604 -3.492,2.604 l -72.792,0"
         style="fill:#c01f36;fill-opacity:1;fill-rule:nonzero;stroke:none"
         id="path3079" />
      <path
         inkscape:connector-curvature="0"
         d="m 400.93314,111.89515 -72.123,0 c -3.225,0 -6.069,2.124 -6.981,5.22 l -25.797,87.345 c -0.651,2.202 -0.222,4.584 1.152,6.423 1.374,1.839 3.537,2.922 5.832,2.922 l 72.792,0 c 3.225,0 6.066,-2.121 6.981,-5.208 l 5.469,-18.42 c 0.654,-2.202 0.231,-4.584 -1.143,-6.426 -1.377,-1.842 -3.54,-2.928 -5.838,-2.928 l -40.857,0 0.567,-1.914 38.319,0 c 3.216,0 6.048,-2.106 6.975,-5.181 l 5.472,-18.168 c 0.666,-2.208 0.246,-4.596 -1.128,-6.447 -1.374,-1.848 -3.54,-2.937 -5.844,-2.937 l -34.047,0 0.381,-1.302 44.349,0 c 3.225,0 6.063,-2.118 6.981,-5.211 l 5.469,-18.414 c 0.654,-2.202 0.231,-4.584 -1.146,-6.429 -1.371,-1.839 -3.537,-2.925 -5.835,-2.925 l 0,0 z m 0,7.284 -5.469,18.414 -49.809,0 -4.635,15.867 43.761,0 -5.475,18.168 -43.752,0 -4.896,16.479 50.619,0 -5.469,18.414 -72.792,0 25.794,-87.342 72.123,0"
         style="fill:#ffffff;fill-opacity:1;fill-rule:nonzero;stroke:none"
         id="path3081" />
      <path
         inkscape:connector-curvature="0"
         d="m 483.80814,210.16315 c -1.146,0 -2.226,-0.54 -2.913,-1.461 -0.687,-0.915 -0.903,-2.106 -0.579,-3.207 l 11.85,-40.368 -24.819,24.636 c -0.684,0.675 -1.608,1.056 -2.568,1.056 l -1.425,0 c -1.47,0 -2.796,-0.885 -3.36,-2.244 l -10.455,-25.128 -13.032,44.106 c -0.456,1.548 -1.878,2.61 -3.492,2.61 l -22.443,0 c -1.146,0 -2.229,-0.543 -2.916,-1.461 -0.687,-0.921 -0.9,-2.109 -0.576,-3.21 l 25.794,-87.345 c 0.456,-1.548 1.878,-2.61 3.492,-2.61 l 22.722,0 c 1.518,0 2.877,0.942 3.411,2.361 l 11.319,30.177 30.474,-31.431 c 0.687,-0.708 1.629,-1.107 2.616,-1.107 l 25.404,0 c 1.149,0 2.229,0.54 2.916,1.461 0.69,0.918 0.903,2.109 0.576,3.21 l -25.794,87.345 c -0.456,1.548 -1.878,2.61 -3.492,2.61 l -22.71,0"
         style="fill:#c01f36;fill-opacity:1;fill-rule:nonzero;stroke:none"
         id="path3083" />
      <path
         inkscape:connector-curvature="0"
         d="m 532.31214,111.89515 -25.404,0 c -1.971,0 -3.858,0.798 -5.229,2.211 l -26.472,27.303 -9.3,-24.789 c -1.068,-2.841 -3.783,-4.725 -6.819,-4.725 l -22.722,0 c -3.228,0 -6.069,2.124 -6.984,5.22 l -25.794,87.345 c -0.651,2.202 -0.225,4.584 1.152,6.423 1.374,1.839 3.534,2.922 5.832,2.922 l 22.443,0 c 3.228,0 6.069,-2.124 6.984,-5.22 l 10.122,-34.26 6.51,15.651 c 1.131,2.715 3.783,4.485 6.723,4.485 l 1.425,0 c 1.923,0 3.768,-0.762 5.13,-2.115 l 14.775,-14.664 -7.863,26.79 c -0.645,2.199 -0.216,4.578 1.158,6.414 1.374,1.839 3.537,2.919 5.829,2.919 l 22.71,0 c 3.228,0 6.072,-2.124 6.984,-5.22 l 25.797,-87.345 c 0.648,-2.202 0.222,-4.584 -1.152,-6.423 -1.377,-1.839 -3.537,-2.922 -5.835,-2.922 l 0,0 z m 0,7.284 -25.794,87.342 -22.71,0 15.837,-53.946 -34.866,34.602 -1.425,0 -14.397,-34.608 -15.942,53.952 -22.443,0 25.794,-87.342 22.722,0 13.341,35.559 34.479,-35.559 25.404,0"
         style="fill:#ffffff;fill-opacity:1;fill-rule:nonzero;stroke:none"
         id="path3085" />
      <path
         inkscape:connector-curvature="0"
         d="m 530.81814,210.16315 c -1.146,0 -2.229,-0.543 -2.916,-1.461 -0.687,-0.921 -0.9,-2.109 -0.576,-3.21 l 25.794,-87.345 c 0.456,-1.548 1.878,-2.61 3.492,-2.61 l 72.117,0 c 1.149,0 2.232,0.54 2.922,1.464 0.684,0.921 0.9,2.109 0.57,3.213 l -5.469,18.414 c -0.459,1.545 -1.878,2.604 -3.492,2.604 l -47.076,0 -2.508,8.586 38.904,0 c 1.152,0 2.235,0.543 2.922,1.467 0.687,0.924 0.897,2.121 0.564,3.225 l -5.475,18.168 c -0.462,1.536 -1.881,2.592 -3.486,2.592 l -41.031,0 -2.736,9.195 45.738,0 c 1.146,0 2.232,0.543 2.916,1.464 0.687,0.921 0.9,2.112 0.573,3.213 l -5.466,18.417 c -0.459,1.545 -1.881,2.604 -3.492,2.604 l -72.789,0"
         style="fill:#c01f36;fill-opacity:1;fill-rule:nonzero;stroke:none"
         id="path3087" />
      <path
         inkscape:connector-curvature="0"
         d="m 628.72914,111.89515 -72.117,0 c -3.228,0 -6.072,2.124 -6.984,5.22 l -25.794,87.345 c -0.651,2.202 -0.225,4.584 1.152,6.423 1.374,1.839 3.537,2.922 5.832,2.922 l 72.789,0 c 3.222,0 6.063,-2.121 6.981,-5.208 l 5.466,-18.42 c 0.657,-2.202 0.231,-4.584 -1.143,-6.426 -1.374,-1.842 -3.537,-2.928 -5.835,-2.928 l -40.854,0 0.567,-1.914 38.316,0 c 3.213,0 6.048,-2.106 6.972,-5.181 l 5.475,-18.168 c 0.666,-2.208 0.249,-4.596 -1.125,-6.447 -1.374,-1.848 -3.543,-2.937 -5.847,-2.937 l -34.047,0 0.381,-1.302 44.346,0 c 3.225,0 6.066,-2.118 6.984,-5.211 l 5.466,-18.414 c 0.654,-2.202 0.234,-4.584 -1.143,-6.429 -1.374,-1.839 -3.54,-2.925 -5.838,-2.925 l 0,0 z m 0,7.284 -5.469,18.414 -49.806,0 -4.635,15.867 43.761,0 -5.475,18.168 -43.749,0 -4.899,16.479 50.619,0 -5.469,18.414 -72.789,0 25.794,-87.342 72.117,0"
         style="fill:#ffffff;fill-opacity:1;fill-rule:nonzero;stroke:none"
         id="path3089" />
      <path
         inkscape:connector-curvature="0"
         d="m 688.93314,210.16315 c -1.443,0 -2.751,-0.852 -3.33,-2.175 l -10.182,-23.142 -23.085,24.189 c -0.687,0.723 -1.641,1.128 -2.637,1.128 l -28.881,0 c -1.482,0 -2.814,-0.894 -3.375,-2.268 -0.558,-1.371 -0.231,-2.943 0.831,-3.978 l 44.634,-43.596 -19.356,-39.543 c -0.552,-1.128 -0.483,-2.46 0.183,-3.528 0.666,-1.065 1.833,-1.713 3.09,-1.713 l 25.146,0 c 1.455,0 2.772,0.867 3.345,2.202 l 9.396,21.858 21.969,-22.938 c 0.69,-0.717 1.641,-1.122 2.631,-1.122 l 28.881,0 c 1.479,0 2.811,0.894 3.372,2.265 0.561,1.371 0.234,2.943 -0.825,3.978 l -43.419,42.489 20.022,40.644 c 0.552,1.128 0.486,2.466 -0.177,3.534 -0.663,1.068 -1.833,1.716 -3.09,1.716 l -25.143,0"
         style="fill:#c01f36;fill-opacity:1;fill-rule:nonzero;stroke:none"
         id="path3091" />
      <path
         inkscape:connector-curvature="0"
         d="m 738.19314,111.89515 -28.881,0 c -1.986,0 -3.885,0.81 -5.259,2.244 l -18.168,18.969 -7.224,-16.806 c -1.152,-2.673 -3.78,-4.407 -6.69,-4.407 l -25.146,0 c -2.514,0 -4.851,1.296 -6.18,3.426 -1.329,2.133 -1.467,4.8 -0.363,7.056 l 18.195,37.179 -42.75,41.757 c -2.118,2.07 -2.772,5.214 -1.656,7.956 1.119,2.742 3.783,4.536 6.747,4.536 l 28.881,0 c 1.992,0 3.897,-0.816 5.271,-2.256 l 19.317,-20.238 7.98,18.141 c 1.164,2.646 3.78,4.353 6.666,4.353 l 25.143,0 c 2.514,0 4.851,-1.299 6.183,-3.435 1.326,-2.139 1.461,-4.809 0.348,-7.068 l -18.855,-38.277 41.535,-40.644 c 2.115,-2.067 2.766,-5.214 1.65,-7.953 -1.119,-2.742 -3.783,-4.533 -6.744,-4.533 l 0,0 z m 0,7.284 -45.303,44.331 21.186,43.011 -25.143,0 -12.375,-28.137 -26.859,28.137 -28.881,0 46.518,-45.435 -20.511,-41.907 25.146,0 11.568,26.907 25.773,-26.907 28.881,0"
         style="fill:#ffffff;fill-opacity:1;fill-rule:nonzero;stroke:none"
         id="path3093" />
      <path
         inkscape:connector-curvature="0"
         d="m 737.92314,210.16315 c -1.149,0 -2.229,-0.543 -2.916,-1.461 -0.687,-0.921 -0.9,-2.109 -0.576,-3.21 l 25.794,-87.345 c 0.456,-1.548 1.878,-2.61 3.492,-2.61 l 22.44,0 c 1.149,0 2.232,0.54 2.919,1.461 0.684,0.918 0.9,2.109 0.573,3.21 l -25.791,87.345 c -0.459,1.548 -1.878,2.61 -3.492,2.61 l -22.443,0"
         style="fill:#c01f36;fill-opacity:1;fill-rule:nonzero;stroke:none"
         id="path3095" />
      <path
         inkscape:connector-curvature="0"
         d="m 786.15714,111.89515 -22.44,0 c -3.228,0 -6.069,2.124 -6.984,5.22 l -25.794,87.345 c -0.651,2.202 -0.225,4.584 1.149,6.423 1.377,1.839 3.54,2.922 5.835,2.922 l 22.443,0 c 3.228,0 6.069,-2.124 6.984,-5.22 l 25.794,-87.345 c 0.648,-2.202 0.222,-4.584 -1.152,-6.423 -1.374,-1.839 -3.54,-2.922 -5.835,-2.922 l 0,0 z m 0,7.284 -25.791,87.342 -22.443,0 25.794,-87.342 22.44,0"
         style="fill:#ffffff;fill-opacity:1;fill-rule:nonzero;stroke:none"
         id="path3097" />
      <path
         inkscape:connector-curvature="0"
         d="m 963.12414,152.90515 c -2.823,0 -5.406,0.612 -7.671,1.818 -2.418,1.287 -4.494,2.955 -6.174,4.953 -1.719,2.043 -3.075,4.389 -4.035,6.969 -0.951,2.553 -1.434,5.058 -1.434,7.449 0,2.025 0.291,3.876 0.867,5.496 0.534,1.515 1.329,2.841 2.358,3.939 0.993,1.059 2.277,1.896 3.807,2.49 1.653,0.642 3.621,0.966 5.859,0.966 2.826,0 5.409,-0.612 7.671,-1.818 2.415,-1.29 4.494,-2.955 6.174,-4.953 1.719,-2.046 3.078,-4.389 4.038,-6.969 0.948,-2.559 1.431,-5.067 1.431,-7.449 0,-2.022 -0.291,-3.87 -0.87,-5.496 -0.537,-1.521 -1.332,-2.847 -2.358,-3.942 -0.987,-1.05 -2.268,-1.89 -3.81,-2.49 -1.65,-0.639 -3.621,-0.963 -5.853,-0.963 l 0,0 z m -8.199,57.489 c -5.307,0 -10.248,-0.894 -14.676,-2.655 -4.452,-1.77 -8.343,-4.296 -11.556,-7.506 -3.21,-3.219 -5.715,-7.014 -7.449,-11.286 -1.737,-4.26 -2.619,-8.925 -2.619,-13.866 0,-5.727 1.131,-11.394 3.36,-16.839 2.229,-5.433 5.406,-10.329 9.447,-14.556 4.053,-4.236 8.958,-7.686 14.574,-10.254 5.697,-2.61 12.054,-3.936 18.894,-3.936 5.313,0 10.251,0.894 14.676,2.655 4.467,1.782 8.352,4.308 11.556,7.509 3.201,3.201 5.706,6.996 7.449,11.28 1.73696,4.266 2.61896,8.931 2.61896,13.869 0,5.727 -1.131,11.391 -3.36596,16.839 -2.22,5.43 -5.4,10.326 -9.441,14.556 -4.059,4.236 -8.961,7.686 -14.574,10.254 -5.7,2.61 -12.057,3.936 -18.894,3.936 l 0,0"
         style="fill:#c01f36;fill-opacity:1;fill-rule:nonzero;stroke:none"
         id="path3099" />
      <path
         inkscape:connector-curvature="0"
         d="m 956.70114,184.01515 c -1.866,0 -3.477,-0.258 -4.782,-0.765 -1.116,-0.432 -2.031,-1.023 -2.718,-1.755 -0.747,-0.795 -1.326,-1.77 -1.722,-2.892 -0.465,-1.308 -0.699,-2.823 -0.699,-4.509 0,-2.037 0.42,-4.194 1.248,-6.411 0.84,-2.262 2.028,-4.314 3.528,-6.096 1.434,-1.704 3.216,-3.135 5.298,-4.245 1.824,-0.972 3.936,-1.467 6.27,-1.467 1.863,0 3.477,0.258 4.788,0.765 1.113,0.435 2.028,1.023 2.712,1.752 0.738,0.792 1.323,1.77 1.725,2.901 0.462,1.305 0.696,2.82 0.696,4.503 0,2.028 -0.42,4.188 -1.248,6.426 -0.837,2.247 -2.025,4.296 -3.525,6.081 -1.437,1.707 -3.216,3.132 -5.298,4.242 -1.827,0.975 -3.939,1.47 -6.273,1.47 l 0,0 z m 8.199,-57.489 c -7.272,0 -14.046,1.416 -20.13,4.203 -5.958,2.727 -11.169,6.396 -15.483,10.902 -4.302,4.5 -7.68,9.708 -10.05,15.48 -2.379,5.811 -3.585,11.856 -3.585,17.97 0,5.325 0.957,10.368 2.844,14.991 1.881,4.632 4.605,8.757 8.085,12.252 3.516,3.507 7.74,6.255 12.57,8.175 4.782,1.902 10.089,2.865 15.774,2.865 7.269,0 14.04,-1.416 20.133,-4.206 5.952,-2.727 11.163,-6.39 15.477,-10.896 4.308,-4.506 7.686,-9.714 10.04996,-15.489 2.379,-5.805 3.585,-11.85 3.585,-17.964 0,-5.322 -0.954,-10.365 -2.838,-14.991 -1.89296,-4.65 -4.61696,-8.775 -8.09696,-12.258 -3.492,-3.489 -7.716,-6.237 -12.558,-8.166 -4.782,-1.905 -10.086,-2.868 -15.777,-2.868 l 0,0 z m -8.199,63.429 c 3.324,0 6.375,-0.729 9.069,-2.169 2.757,-1.467 5.127,-3.372 7.05,-5.661 1.932,-2.301 3.465,-4.941 4.548,-7.842 1.071,-2.892 1.617,-5.748 1.617,-8.487 0,-2.358 -0.348,-4.542 -1.038,-6.489 -0.675,-1.905 -1.683,-3.582 -2.994,-4.98 -1.296,-1.383 -2.943,-2.466 -4.896,-3.228 -1.998,-0.771 -4.332,-1.164 -6.933,-1.164 -3.321,0 -6.372,0.729 -9.069,2.166 -2.751,1.467 -5.124,3.375 -7.047,5.664 -1.938,2.304 -3.468,4.941 -4.548,7.842 -1.074,2.886 -1.62,5.739 -1.62,8.487 0,2.361 0.348,4.545 1.038,6.489 0.672,1.902 1.674,3.573 2.991,4.977 1.299,1.386 2.946,2.472 4.899,3.228 1.995,0.774 4.329,1.167 6.933,1.167 m 8.199,-57.486 c 4.932,0 9.501,0.819 13.578,2.442 4.089,1.632 7.638,3.936 10.554,6.852 2.916,2.916 5.202,6.378 6.798,10.296 1.59,3.909 2.4,8.199 2.4,12.75 0,5.334 -1.056,10.623 -3.144,15.714 -2.082,5.088 -5.058,9.672 -8.841,13.629 -3.792,3.957 -8.391,7.191 -13.662,9.606 -5.31,2.43 -11.253,3.663 -17.658,3.663 -4.935,0 -9.501,-0.822 -13.578,-2.442 -4.077,-1.623 -7.632,-3.93 -10.557,-6.852 -2.916,-2.922 -5.205,-6.384 -6.795,-10.299 -1.593,-3.903 -2.4,-8.193 -2.4,-12.747 0,-5.34 1.056,-10.629 3.138,-15.714 2.088,-5.085 5.061,-9.669 8.844,-13.629 3.795,-3.957 8.388,-7.191 13.668,-9.606 5.307,-2.433 11.247,-3.663 17.655,-3.663"
         style="fill:#ffffff;fill-opacity:1;fill-rule:nonzero;stroke:none"
         id="path3101" />
      <path
         inkscape:connector-curvature="0"
         d="m 237.86814,254.57515 c -10.215,0 -19.776,-1.557 -28.416,-4.629 -8.697,-3.087 -16.323,-7.545 -22.665,-13.242 -6.384,-5.727 -11.421,-12.783 -14.9682,-20.967 -3.5346,-8.148 -5.3286,-17.37 -5.3286,-27.417 0,-11.955 2.4186,-23.466 7.1883,-34.218 4.746,-10.692 11.2785,-20.277 19.4205,-28.488 8.157,-8.226 17.859,-14.838 28.833,-19.656 11.028,-4.836 23.019,-7.287 35.646,-7.287 14.406,0 26.73,2.931 36.627,8.706 9.867,5.766 17.928,13.716 23.958,23.625 0.999,1.641 0.555,3.777 -1.02,4.878 l -26.07,18.27 c -0.636,0.447 -1.365,0.66 -2.088,0.66 -1.143,0 -2.268,-0.54 -2.979,-1.545 -3.96,-5.619 -8.475,-10.14 -13.413,-13.437 -4.704,-3.135 -11.067,-4.725 -18.915,-4.725 -5.988,0 -11.844,1.365 -17.403,4.053 -5.664,2.736 -10.761,6.48 -15.156,11.127 -4.398,4.653 -7.956,10.221 -10.572,16.542 -2.607,6.3 -3.93,13.116 -3.93,20.268 0,4.716 0.774,9.021 2.301,12.795 1.509,3.756 3.681,7.032 6.456,9.744 2.778,2.721 6.093,4.836 9.852,6.288 3.801,1.476 8.127,2.223 12.852,2.223 6.378,0 11.907,-1.149 16.431,-3.414 4.821,-2.412 9.84,-5.751 14.919,-9.924 0.675,-0.555 1.494,-0.828 2.31,-0.828 0.963,0 1.914,0.375 2.628,1.119 l 20.529,21.345 c 0.678,0.705 1.044,1.656 1.014,2.634 -0.03,0.978 -0.453,1.905 -1.17,2.568 -7.218,6.654 -15.396,12.177 -24.306,16.419 -9.081,4.323 -20.037,6.513 -32.565,6.513 l 0,0"
         style="fill:#c01f36;fill-opacity:1;fill-rule:nonzero;stroke:none"
         id="path3103" />
      <path
         inkscape:connector-curvature="0"
         d="m 257.57814,95.02915 c -13.134,0 -25.617,2.556 -37.104,7.596 -11.4,5.001 -21.477,11.871 -29.958,20.424 -8.457,8.529 -15.2391,18.48 -20.1657,29.577 -4.9782,11.217 -7.5012,23.226 -7.5012,35.694 0,10.548 1.8951,20.259 5.6298,28.869 3.7557,8.667 9.0996,16.146 15.8811,22.227 6.693,6.015 14.724,10.713 23.871,13.965 9.033,3.207 19.005,4.836 29.637,4.836 13.074,0 24.558,-2.313 34.128,-6.867 9.243,-4.401 17.724,-10.128 25.209,-17.028 1.44,-1.329 2.283,-3.18 2.343,-5.136 0.06,-1.959 -0.672,-3.858 -2.031,-5.268 l -20.529,-21.348 c -1.422,-1.479 -3.33,-2.235 -5.25,-2.235 -1.632,0 -3.27,0.546 -4.62,1.656 -4.869,4.002 -9.66,7.191 -14.235,9.48 -4.02,2.01 -9,3.03 -14.805,3.03 -4.275,0 -8.154,-0.666 -11.535,-1.974 -3.345,-1.296 -6.165,-3.09 -8.622,-5.496 -2.445,-2.394 -4.287,-5.172 -5.622,-8.496 -1.356,-3.351 -2.04,-7.194 -2.04,-11.442 0,-6.672 1.23,-13.02 3.651,-18.873 2.448,-5.913 5.766,-11.106 9.858,-15.438 4.086,-4.323 8.829,-7.806 14.088,-10.347 5.136,-2.484 10.311,-3.69 15.822,-3.69 7.116,0 12.801,1.383 16.896,4.113 4.563,3.045 8.754,7.254 12.459,12.504 1.416,2.013 3.669,3.087 5.955,3.087 1.446,0 2.904,-0.429 4.176,-1.317 l 26.067,-18.27 c 3.147,-2.205 4.041,-6.471 2.043,-9.75 -6.348,-10.434 -14.838,-18.804 -25.23,-24.876 -10.464,-6.108 -23.406,-9.207 -38.466,-9.207 l 0,0 z m 0,7.284 c 13.818,0 25.419,2.739 34.791,8.211 9.375,5.478 16.938,12.933 22.683,22.374 l -26.067,18.27 c -4.242,-6.018 -9.033,-10.806 -14.37,-14.37 -5.337,-3.555 -12.318,-5.337 -20.937,-5.337 -6.57,0 -12.9,1.473 -18.99,4.416 -6.09,2.943 -11.493,6.909 -16.215,11.904 -4.722,4.998 -8.487,10.878 -11.292,17.655 -2.805,6.774 -4.206,13.992 -4.206,21.657 0,5.202 0.852,9.921 2.568,14.16 1.707,4.245 4.134,7.905 7.284,10.983 3.147,3.081 6.843,5.442 11.085,7.083 4.239,1.641 8.964,2.463 14.166,2.463 6.978,0 12.996,-1.263 18.06,-3.798 5.061,-2.532 10.269,-5.982 15.603,-10.365 l 20.529,21.345 c -6.981,6.438 -14.781,11.706 -23.403,15.81 -8.622,4.104 -18.954,6.159 -30.999,6.159 -9.846,0 -18.918,-1.473 -27.198,-4.416 -8.28,-2.943 -15.432,-7.113 -21.45,-12.522 -6.021,-5.403 -10.7088,-11.973 -14.0604,-19.704 -3.3537,-7.731 -5.0271,-16.389 -5.0271,-25.971 0,-11.496 2.2884,-22.404 6.8754,-32.739 4.5861,-10.332 10.8081,-19.464 18.6771,-27.402 7.869,-7.935 17.109,-14.232 27.711,-18.885 10.605,-4.65 21.999,-6.981 34.182,-6.981"
         style="fill:#ffffff;fill-opacity:1;fill-rule:nonzero;stroke:none"
         id="path3105" />
      <path
         inkscape:connector-curvature="0"
         d="m 854.52114,254.57515 c -10.215,0 -19.776,-1.557 -28.419,-4.629 -8.694,-3.087 -16.32,-7.545 -22.659,-13.242 -6.39,-5.73 -11.427,-12.783 -14.97,-20.967 -3.537,-8.148 -5.331,-17.373 -5.331,-27.417 0,-11.955 2.418,-23.466 7.185,-34.218 4.746,-10.686 11.283,-20.271 19.425,-28.488 8.157,-8.226 17.859,-14.838 28.833,-19.656 11.025,-4.833 23.016,-7.287 35.643,-7.287 14.409,0 26.73,2.931 36.627,8.706 9.867,5.769 17.928,13.716 23.958,23.628 0.999,1.641 0.555,3.774 -1.02,4.875 l -26.07,18.27 c -0.636,0.447 -1.365,0.66 -2.088,0.66 -1.143,0 -2.268,-0.54 -2.979,-1.545 -3.96,-5.622 -8.475,-10.143 -13.41,-13.437 -4.707,-3.135 -11.07,-4.725 -18.918,-4.725 -5.988,0 -11.844,1.362 -17.403,4.053 -5.664,2.736 -10.764,6.48 -15.159,11.127 -4.398,4.656 -7.956,10.224 -10.569,16.542 -2.607,6.3 -3.93,13.122 -3.93,20.268 0,4.716 0.774,9.021 2.301,12.795 1.512,3.756 3.681,7.032 6.456,9.744 2.781,2.721 6.096,4.836 9.852,6.288 3.801,1.476 8.127,2.223 12.852,2.223 6.375,0 11.907,-1.149 16.431,-3.414 4.812,-2.406 9.834,-5.745 14.922,-9.927 0.675,-0.552 1.497,-0.825 2.31,-0.825 0.96,0 1.917,0.375 2.628,1.119 l 20.526,21.348 c 0.678,0.702 1.044,1.653 1.014,2.631 -0.03,0.978 -0.453,1.905 -1.17,2.568 -7.218,6.651 -15.396,12.174 -24.306,16.419 -9.081,4.323 -20.034,6.513 -32.562,6.513 l 0,0"
         style="fill:#c01f36;fill-opacity:1;fill-rule:nonzero;stroke:none"
         id="path3107" />
      <path
         inkscape:connector-curvature="0"
         d="m 874.22814,95.02915 c -13.131,0 -25.617,2.556 -37.104,7.596 -11.397,5.001 -21.477,11.874 -29.955,20.424 -8.46,8.532 -15.243,18.483 -20.166,29.577 -4.977,11.217 -7.503,23.226 -7.503,35.694 0,10.548 1.896,20.259 5.634,28.869 3.75,8.664 9.093,16.143 15.879,22.23 6.69,6.012 14.724,10.71 23.871,13.962 9.033,3.207 19.005,4.836 29.637,4.836 13.074,0 24.555,-2.313 34.128,-6.867 9.24,-4.401 17.721,-10.131 25.209,-17.028 1.437,-1.329 2.283,-3.18 2.343,-5.136 0.057,-1.959 -0.675,-3.858 -2.031,-5.268 l -20.526,-21.348 c -1.425,-1.479 -3.333,-2.235 -5.253,-2.235 -1.632,0 -3.27,0.546 -4.62,1.656 -4.878,4.005 -9.672,7.194 -14.238,9.477 -4.017,2.013 -9,3.033 -14.805,3.033 -4.275,0 -8.154,-0.666 -11.535,-1.974 -3.342,-1.293 -6.162,-3.09 -8.622,-5.499 -2.445,-2.391 -4.284,-5.169 -5.622,-8.493 -1.356,-3.351 -2.04,-7.197 -2.04,-11.442 0,-6.669 1.227,-13.017 3.651,-18.873 2.448,-5.91 5.763,-11.106 9.858,-15.441 4.083,-4.32 8.826,-7.8 14.091,-10.344 5.061,-2.451 10.386,-3.69 15.819,-3.69 7.116,0 12.801,1.383 16.899,4.116 4.56,3.039 8.751,7.248 12.456,12.501 1.416,2.013 3.669,3.087 5.955,3.087 1.446,0 2.904,-0.429 4.176,-1.317 l 26.07,-18.27 c 3.144,-2.205 4.038,-6.471 2.04,-9.75 -6.348,-10.434 -14.838,-18.804 -25.23,-24.876 -10.464,-6.108 -23.406,-9.207 -38.466,-9.207 l 0,0 z m 0,7.284 c 13.818,0 25.419,2.739 34.791,8.211 9.375,5.478 16.938,12.933 22.683,22.374 l -26.07,18.27 c -4.239,-6.018 -9.027,-10.806 -14.364,-14.37 -5.34,-3.555 -12.321,-5.337 -20.94,-5.337 -6.57,0 -12.903,1.473 -18.987,4.416 -6.09,2.943 -11.496,6.909 -16.221,11.904 -4.716,4.998 -8.484,10.878 -11.289,17.655 -2.802,6.774 -4.203,13.992 -4.203,21.657 0,5.202 0.849,9.921 2.565,14.16 1.71,4.245 4.14,7.905 7.284,10.983 3.15,3.081 6.843,5.442 11.085,7.083 4.239,1.641 8.964,2.463 14.166,2.463 6.978,0 12.996,-1.263 18.063,-3.798 5.061,-2.532 10.263,-5.982 15.603,-10.365 l 20.526,21.345 c -6.981,6.438 -14.781,11.706 -23.4,15.81 -8.625,4.104 -18.957,6.159 -30.999,6.159 -9.852,0 -18.918,-1.473 -27.198,-4.416 -8.28,-2.943 -15.432,-7.113 -21.447,-12.522 -6.027,-5.403 -10.716,-11.973 -14.061,-19.704 -3.357,-7.731 -5.034,-16.389 -5.034,-25.971 0,-11.496 2.289,-22.404 6.876,-32.739 4.587,-10.332 10.815,-19.464 18.684,-27.402 7.866,-7.935 17.106,-14.232 27.708,-18.885 10.602,-4.65 21.996,-6.981 34.179,-6.981"
         style="fill:#ffffff;fill-opacity:1;fill-rule:nonzero;stroke:none"
         id="path3109" />
      <path
         inkscape:connector-curvature="0"
         d="m 152.37744,89.70115 c 0,0 -20.55,22.791 -53.8806,53.508 23.1189,0 33.9036,0 33.9036,0 l 19.977,-53.508"
         style="fill:#ffffff;fill-opacity:1;fill-rule:nonzero;stroke:none"
         id="path3111" />
    </g>
  </g>
</svg>
